<svg xmlns="http://www.w3.org/2000/svg" viewBox="0 0 1000 500"><g fill="#82dec5" fill-opacity=".18" stroke="#a7ead9" stroke-opacity=".58" stroke-width="1.15" vector-effect="non-scaling-stroke" fill-rule="evenodd"><path d="M334.5,472.3 L332.9,475.0 L315.9,472.9 L328.1,473.3 L331.6,471.2 L334.5,472.3Z"/><path d="M57.8,470.8 L52.4,471.2 L45.2,468.3 L57.0,469.6 L57.8,470.8Z"/><path d="M374.6,466.8 L378.0,468.0 L379.6,472.3 L359.8,475.1 L349.5,474.0 L370.4,466.2 L374.6,466.8Z"/><path d="M163.3,454.2 L170.2,454.1 L166.0,455.8 L160.0,453.7 L163.3,454.2Z"/><path d="M151.2,454.1 L155.5,455.2 L146.4,454.1 L148.4,453.5 L151.2,454.1Z"/><path d="M225.1,449.8 L232.8,451.4 L215.7,449.7 L221.0,449.6 L225.1,449.8Z"/><path d="M309.9,447.1 L308.9,450.5 L291.8,450.2 L299.8,447.8 L302.3,441.8 L304.9,441.3 L309.1,445.8 L309.9,447.1Z"/><path d="M337.2,428.2 L327.7,430.0 L326.0,431.9 L327.4,433.9 L317.6,438.8 L328.3,446.4 L331.0,454.7 L303.9,462.9 L285.4,463.1 L295.4,466.4 L283.5,467.7 L283.3,469.9 L290.7,472.9 L334.2,478.8 L338.3,481.2 L361.8,477.0 L381.1,478.0 L420.7,473.2 L417.5,470.2 L401.0,470.7 L400.6,467.6 L451.3,458.7 L456.4,456.9 L454.3,455.2 L457.1,453.2 L471.4,448.0 L479.4,449.2 L480.9,447.0 L499.4,449.0 L521.5,444.1 L530.0,446.8 L537.3,444.4 L575.3,445.7 L588.9,443.5 L594.1,440.3 L607.4,443.8 L651.5,432.8 L670.6,438.8 L677.9,437.2 L691.4,438.7 L693.5,442.3 L688.4,445.3 L691.9,446.3 L688.7,449.6 L694.1,450.7 L705.2,444.1 L715.7,443.0 L729.9,436.7 L741.0,436.5 L744.4,433.9 L749.1,436.5 L766.1,437.2 L777.0,436.8 L785.6,432.1 L794.9,435.9 L815.6,433.0 L832.9,436.9 L842.3,434.7 L874.3,433.9 L875.2,431.4 L881.8,436.0 L904.1,435.9 L913.4,440.0 L928.6,440.4 L948.8,446.1 L975.6,449.2 L970.2,454.6 L961.4,456.6 L954.4,461.8 L957.6,467.2 L963.9,468.8 L949.4,469.9 L943.9,474.8 L970.6,482.8 L1000.0,485.3 L1000.0,500.0 L0.0,500.0 L0.0,485.3 L2.6,483.7 L15.6,484.8 L27.9,483.0 L60.9,487.1 L102.5,486.2 L103.1,484.9 L73.4,482.5 L75.4,477.9 L64.3,475.3 L81.5,475.9 L93.3,473.2 L84.6,470.4 L68.5,469.6 L61.0,466.7 L60.1,463.6 L79.6,465.0 L94.2,462.4 L93.9,459.4 L124.4,456.4 L163.7,457.0 L183.5,454.8 L188.1,457.5 L201.2,458.8 L221.9,458.0 L215.2,455.9 L212.0,451.7 L232.4,454.5 L249.8,453.7 L252.1,451.6 L273.7,455.1 L277.0,453.1 L292.0,455.2 L312.9,451.3 L309.6,443.7 L313.2,435.8 L325.0,429.6 L339.4,425.8 L340.0,427.4 L337.2,428.2Z"/><path d="M311.8,399.6 L319.3,401.9 L307.7,404.2 L292.6,396.8 L302.5,400.2 L307.4,395.9 L310.4,397.5 L311.8,399.6Z"/><path d="M337.4,391.9 L338.8,394.2 L330.0,394.0 L335.7,393.1 L337.4,391.9Z"/><path d="M695.2,388.1 L691.0,388.3 L691.5,385.1 L696.0,386.8 L695.2,388.1Z"/><path d="M903.9,363.3 L911.9,363.5 L910.9,370.0 L905.7,371.0 L902.1,363.1 L903.9,363.3Z"/><path d="M980.6,363.7 L984.0,364.9 L979.8,370.5 L980.8,371.8 L976.3,372.9 L970.4,379.6 L963.0,378.4 L964.0,375.3 L973.7,369.5 L980.0,362.5 L980.6,363.7Z"/><path d="M985.0,350.4 L991.0,355.2 L995.9,354.7 L994.4,358.8 L992.2,358.7 L986.8,365.8 L985.8,360.9 L982.8,359.7 L985.3,353.8 L979.5,345.9 L984.2,348.0 L985.0,350.4Z"/><path d="M964.2,311.6 L959.7,310.2 L955.6,305.8 L962.8,310.3 L964.2,311.6Z"/><path d="M995.5,298.2 L996.0,300.4 L992.7,300.5 L994.8,298.6 L995.5,298.2Z"/><path d="M998.2,296.7 L996.1,296.2 L1000.0,296.0 L998.2,296.7Z"/><path d="M0.2,295.8 L0.6,294.5 L0.2,295.8Z"/><path d="M966.2,295.7 L964.5,294.1 L966.2,295.7Z"/><path d="M964.2,291.5 L964.6,293.7 L962.9,290.6 L964.2,291.5Z"/><path d="M639.0,287.7 L639.9,293.6 L638.0,293.6 L630.8,319.3 L626.1,321.1 L622.3,319.4 L620.2,311.3 L623.3,305.8 L623.5,295.0 L632.5,290.5 L636.7,283.4 L638.4,285.8 L639.0,287.7Z"/><path d="M898.8,288.2 L903.8,291.6 L906.6,302.7 L913.5,306.6 L915.8,312.1 L918.7,312.2 L925.4,322.4 L926.6,328.1 L924.7,337.9 L916.7,354.0 L906.4,358.4 L902.9,355.3 L898.9,357.8 L890.7,355.6 L887.7,350.4 L883.7,348.9 L883.9,345.5 L880.1,347.9 L882.8,341.4 L877.7,346.9 L873.0,340.6 L864.8,337.5 L850.4,339.5 L843.5,344.1 L833.0,344.4 L827.8,347.4 L819.5,345.0 L821.4,337.8 L814.8,322.5 L816.1,323.7 L815.1,321.2 L817.3,323.1 L815.0,317.7 L817.1,310.4 L817.3,312.5 L824.2,307.5 L835.7,304.7 L841.7,295.6 L844.1,297.4 L843.1,296.1 L849.1,289.5 L853.0,288.4 L860.1,291.6 L862.8,284.8 L868.3,283.7 L866.2,281.3 L875.8,284.0 L879.1,282.9 L880.4,284.3 L876.4,291.7 L889.5,299.2 L892.4,295.5 L895.9,279.6 L898.9,287.2 L898.8,288.2Z"/><path d="M950.3,279.1 L948.1,278.3 L949.8,279.0 L950.3,279.1Z"/><path d="M835.3,278.4 L830.5,276.5 L835.5,277.7 L835.3,278.4Z"/><path d="M946.8,277.4 L943.6,275.7 L946.4,276.7 L946.8,277.4Z"/><path d="M949.1,276.7 L946.1,273.1 L948.0,275.3 L949.1,276.7Z"/><path d="M845.7,278.2 L842.9,278.4 L847.5,274.0 L853.7,273.3 L847.5,276.1 L845.7,278.2Z"/><path d="M827.5,272.5 L830.9,274.2 L824.3,275.1 L826.8,273.5 L827.5,272.5Z"/><path d="M841.4,272.5 L841.0,274.0 L833.1,274.5 L838.9,273.5 L841.4,272.5Z"/><path d="M944.1,273.2 L939.5,270.6 L943.4,272.3 L944.1,273.2Z"/><path d="M937.6,270.4 L934.8,268.3 L936.5,269.5 L937.6,270.4Z"/><path d="M801.7,268.8 L807.7,268.0 L821.4,273.3 L818.2,274.3 L792.7,269.0 L794.6,266.4 L801.4,267.8 L801.7,268.8Z"/><path d="M874.2,267.3 L872.8,269.2 L874.2,265.9 L874.2,267.3Z"/><path d="M933.0,268.9 L929.2,264.3 L933.4,268.2 L933.0,268.9Z"/><path d="M922.2,265.2 L917.3,267.5 L912.0,266.0 L917.1,263.9 L918.9,265.2 L920.9,261.6 L923.1,263.5 L922.2,265.2Z"/><path d="M853.5,259.6 L850.0,258.8 L852.8,258.7 L853.5,259.6Z"/><path d="M862.4,258.6 L863.4,260.7 L855.3,259.4 L859.4,257.8 L862.4,258.6Z"/><path d="M925.4,262.5 L918.5,257.6 L925.1,261.1 L925.4,262.5Z"/><path d="M872.6,253.2 L873.4,257.7 L876.3,259.4 L884.2,254.7 L901.6,260.7 L910.1,266.9 L908.9,270.5 L918.6,279.4 L910.9,278.1 L902.1,271.2 L896.2,275.9 L886.5,272.5 L882.3,273.4 L885.2,270.3 L883.1,265.0 L871.3,259.8 L869.4,261.4 L866.6,257.8 L871.4,256.2 L867.3,256.1 L862.6,252.6 L872.2,252.2 L872.6,253.2Z"/><path d="M847.9,246.1 L843.6,249.3 L833.8,249.3 L835.9,253.9 L842.6,251.7 L837.5,255.3 L842.1,264.8 L839.5,264.7 L840.9,262.4 L837.5,262.7 L836.0,257.3 L834.2,258.1 L834.5,265.4 L831.6,264.9 L831.9,259.7 L829.9,257.8 L833.4,248.4 L835.8,246.4 L844.7,247.5 L847.4,245.4 L847.9,246.1Z"/><path d="M857.5,246.9 L855.8,252.5 L853.9,247.2 L855.4,244.0 L857.2,245.7 L857.5,246.9Z"/><path d="M793.9,266.3 L790.9,266.3 L785.0,261.7 L764.7,234.8 L770.8,235.4 L779.6,244.2 L784.7,246.1 L788.4,249.7 L787.3,252.0 L794.7,258.5 L794.0,262.0 L793.9,266.3Z"/><path d="M827.4,244.9 L830.5,247.5 L827.3,247.8 L822.6,261.1 L806.2,258.2 L803.0,251.3 L804.6,244.4 L808.8,244.9 L809.4,242.5 L813.9,241.4 L824.2,230.8 L831.1,235.0 L825.9,241.0 L827.9,243.6 L827.4,244.9Z"/><path d="M851.0,226.6 L851.5,230.0 L850.5,232.6 L849.5,229.7 L848.2,231.1 L848.3,234.5 L845.1,232.9 L843.4,228.2 L838.7,230.0 L843.0,225.9 L848.5,225.0 L848.4,222.9 L850.9,225.6 L851.0,226.6Z"/><path d="M725.6,232.8 L723.2,233.4 L721.9,231.2 L722.6,222.7 L727.2,229.1 L726.8,232.0 L725.6,232.8Z"/><path d="M330.7,221.9 L327.9,222.0 L330.8,219.8 L330.7,221.9Z"/><path d="M844.4,221.4 L841.7,224.9 L839.9,223.0 L844.7,218.8 L844.4,221.4Z"/><path d="M829.2,224.1 L825.5,226.8 L832.0,218.4 L830.6,222.2 L829.2,224.1Z"/><path d="M838.6,217.0 L842.0,217.8 L838.9,221.0 L839.0,218.3 L838.6,217.0Z"/><path d="M848.6,216.2 L849.4,219.3 L847.3,218.6 L846.7,221.8 L845.2,215.1 L847.9,215.2 L848.6,216.2Z"/><path d="M837.6,213.7 L836.8,216.1 L834.2,212.6 L836.6,212.7 L837.6,213.7Z"/><path d="M837.0,198.6 L839.6,198.7 L840.3,202.5 L838.1,210.2 L844.3,211.7 L844.7,215.2 L841.5,212.4 L835.1,211.5 L836.1,209.7 L833.5,208.4 L833.0,204.5 L834.1,205.5 L835.3,198.6 L837.0,198.6Z"/><path d="M317.8,199.4 L313.4,200.1 L313.6,198.6 L317.3,198.8 L317.8,199.4Z"/><path d="M286.4,200.4 L282.4,199.4 L288.3,200.3 L286.4,200.4Z"/><path d="M298.4,194.8 L305.7,195.4 L310.2,198.3 L303.7,198.8 L301.7,201.1 L294.7,199.9 L293.4,198.2 L299.1,198.1 L296.7,194.7 L298.4,194.8Z"/><path d="M806.5,198.1 L801.8,198.6 L801.7,196.2 L807.7,194.2 L807.1,196.5 L806.5,198.1Z"/><path d="M67.9,197.0 L67.1,193.7 L68.8,196.6 L67.9,197.0Z"/><path d="M66.4,192.7 L64.7,191.9 L66.7,192.3 L66.4,192.7Z"/><path d="M64.6,191.2 L63.2,191.1 L64.6,191.2Z"/><path d="M62.1,190.8 L61.3,189.9 L62.1,190.8Z"/><path d="M57.4,188.9 L57.3,188.3 L57.4,188.9Z"/><path d="M278.7,186.8 L293.9,193.7 L284.0,194.8 L285.9,193.3 L281.3,190.0 L272.8,187.1 L264.0,189.2 L268.7,186.2 L276.1,185.8 L278.7,186.8Z"/><path d="M284.6,184.0 L282.8,180.0 L284.6,182.4 L284.6,184.0Z"/><path d="M836.6,186.7 L835.4,189.0 L833.6,184.6 L837.5,179.7 L838.3,182.2 L836.6,186.7Z"/><path d="M283.8,176.2 L280.6,175.6 L283.8,175.4 L283.8,176.2Z"/><path d="M286.1,176.1 L285.6,178.1 L283.9,174.9 L286.1,176.1Z"/><path d="M874.0,155.1 L872.8,157.8 L867.7,158.4 L872.0,154.5 L874.0,155.1Z"/><path d="M596.0,150.9 L591.6,154.0 L589.6,152.5 L593.5,151.7 L596.0,150.9Z"/><path d="M565.8,150.8 L573.0,151.9 L565.3,152.0 L565.8,150.8Z"/><path d="M543.1,143.8 L541.9,148.3 L534.5,145.5 L541.0,144.0 L543.1,143.8Z"/><path d="M525.6,135.5 L526.9,141.2 L524.5,141.9 L522.7,136.2 L524.2,136.4 L525.6,135.5Z"/><path d="M891.6,146.8 L889.6,152.4 L881.2,153.9 L877.2,157.0 L875.2,153.9 L863.9,155.9 L866.7,157.9 L864.8,162.6 L861.7,162.7 L862.4,160.2 L859.5,157.5 L868.4,151.6 L876.9,151.3 L879.8,146.4 L881.6,147.7 L887.3,143.8 L888.6,137.3 L892.7,135.1 L894.1,141.2 L891.6,144.0 L891.6,146.8Z"/><path d="M526.6,132.9 L525.6,135.1 L523.7,132.6 L526.1,130.5 L526.6,132.9Z"/><path d="M899.8,127.3 L903.7,126.7 L904.3,129.8 L897.7,133.3 L893.4,131.4 L891.9,134.5 L888.8,134.5 L888.4,131.8 L892.7,129.5 L894.4,123.5 L897.6,126.4 L899.8,127.3Z"/><path d="M323.2,120.7 L327.7,121.0 L325.3,122.3 L321.8,121.1 L322.2,119.3 L323.2,120.7Z"/><path d="M328.3,113.6 L320.8,111.5 L328.2,113.1 L328.3,113.6Z"/><path d="M156.9,115.2 L151.0,114.4 L143.2,109.6 L150.7,110.3 L155.8,113.7 L156.9,115.2Z"/><path d="M344.1,109.2 L342.2,111.6 L351.5,113.2 L350.6,115.2 L352.5,114.8 L353.8,118.0 L352.6,120.4 L349.5,120.0 L349.3,117.4 L346.1,119.8 L343.7,117.7 L335.4,117.8 L340.7,109.1 L345.6,107.5 L344.1,109.2Z"/><path d="M131.4,99.9 L134.0,99.7 L133.2,102.8 L135.6,105.1 L130.1,99.5 L131.4,99.9Z"/><path d="M899.0,109.0 L901.8,114.0 L897.7,113.0 L896.0,117.1 L898.6,121.8 L896.5,120.2 L894.7,122.3 L893.3,105.7 L895.0,99.4 L897.9,106.2 L899.0,109.0Z"/><path d="M481.1,104.8 L472.3,106.1 L474.5,103.2 L473.1,100.3 L481.3,96.7 L484.3,98.5 L483.2,102.4 L481.1,104.8Z"/><path d="M535.3,95.5 L533.6,97.8 L530.7,96.2 L534.4,94.1 L535.3,95.5Z"/><path d="M75.0,91.3 L72.2,92.4 L70.4,90.4 L77.4,90.0 L75.0,91.3Z"/><path d="M491.7,87.1 L488.7,90.1 L494.6,89.8 L491.3,94.5 L494.2,94.7 L501.3,103.0 L504.7,103.5 L504.0,107.5 L485.4,111.2 L484.0,110.7 L490.5,107.1 L485.4,105.6 L488.3,104.7 L487.3,101.4 L491.4,101.7 L491.8,100.0 L486.5,97.8 L486.0,95.0 L484.5,96.4 L482.9,92.3 L486.1,87.1 L488.3,87.4 L491.7,87.1Z"/><path d="M40.1,83.6 L34.8,82.7 L39.8,82.5 L40.1,83.6Z"/><path d="M279.8,77.3 L276.8,77.7 L279.1,76.8 L279.8,77.3Z"/><path d="M272.5,75.8 L266.7,76.5 L272.6,75.3 L272.5,75.8Z"/><path d="M23.0,72.8 L31.4,74.2 L22.8,73.9 L23.0,72.8Z"/><path d="M263.4,67.6 L277.5,73.0 L269.1,71.9 L262.4,74.9 L257.7,73.5 L261.4,67.4 L263.4,67.6Z"/><path d="M459.7,65.4 L459.1,67.2 L462.2,69.1 L448.2,73.6 L436.8,72.3 L439.5,71.1 L433.5,69.7 L438.3,68.4 L432.4,67.7 L434.3,65.9 L442.8,67.4 L455.1,65.2 L459.7,65.4Z"/><path d="M289.3,63.5 L285.5,62.3 L289.2,60.3 L291.1,62.7 L289.3,63.5Z"/><path d="M13.8,65.0 L22.6,64.1 L28.1,66.7 L20.7,68.2 L19.6,71.5 L4.6,68.4 L3.6,66.4 L0.3,67.0 L1.6,68.3 L0.0,69.5 L0.0,58.4 L14.1,63.3 L13.8,65.0Z"/><path d="M234.3,58.0 L222.8,57.2 L227.2,55.2 L232.6,57.0 L234.3,58.0Z"/><path d="M1000.0,53.2 L996.5,52.5 L1000.0,51.3 L1000.0,53.2Z"/><path d="M3.6,53.1 L0.0,53.2 L0.0,51.3 L6.5,52.4 L3.6,53.1Z"/><path d="M248.5,57.0 L248.5,59.8 L252.2,57.6 L257.4,63.3 L262.3,58.9 L262.4,55.9 L270.5,56.5 L274.2,57.9 L272.3,60.7 L274.3,62.2 L268.5,65.5 L261.8,65.1 L257.4,70.1 L241.2,77.7 L237.0,86.3 L241.1,86.7 L243.6,91.4 L271.5,96.8 L271.9,102.0 L278.0,107.8 L281.7,104.0 L278.3,98.1 L287.4,93.0 L281.9,86.7 L285.2,83.7 L283.0,76.9 L294.9,76.5 L306.7,80.4 L307.5,86.2 L312.1,88.3 L320.6,82.4 L329.5,91.8 L328.3,93.5 L340.7,98.3 L345.1,102.0 L345.3,105.1 L333.2,110.4 L315.6,110.5 L302.5,119.9 L319.3,113.2 L321.7,114.6 L319.1,116.5 L320.9,121.6 L329.1,122.5 L331.9,119.4 L333.9,122.4 L318.4,129.0 L316.3,128.8 L316.2,126.5 L321.0,124.2 L313.5,124.6 L303.6,130.5 L305.7,134.3 L295.2,136.3 L300.2,136.3 L294.6,136.8 L291.9,141.8 L290.2,140.3 L291.5,143.3 L289.1,146.6 L287.9,141.2 L288.0,144.2 L286.2,143.8 L289.6,151.2 L274.1,162.7 L277.6,175.3 L276.7,180.0 L273.0,178.1 L269.6,169.2 L266.4,166.4 L252.3,165.8 L252.2,168.6 L249.6,169.1 L239.3,167.5 L231.7,171.4 L229.5,173.9 L228.1,187.7 L232.5,196.3 L237.7,199.6 L244.3,198.0 L247.9,196.4 L249.2,191.7 L258.2,190.2 L253.0,205.9 L263.9,205.6 L268.3,207.6 L267.2,219.2 L273.8,225.6 L279.0,223.3 L286.6,226.0 L291.9,219.2 L300.7,215.5 L302.4,216.4 L300.1,218.3 L300.8,224.8 L302.7,222.6 L301.7,219.5 L305.7,216.2 L310.6,220.7 L319.7,222.0 L328.1,220.2 L325.7,221.1 L326.7,222.4 L341.3,233.4 L350.1,234.0 L357.5,238.3 L361.2,245.2 L360.0,250.2 L364.9,250.7 L365.0,253.4 L367.2,251.6 L375.3,254.3 L376.2,257.5 L388.9,258.0 L401.1,264.3 L403.5,270.4 L402.4,275.0 L392.6,286.3 L390.9,299.6 L386.3,310.9 L383.4,313.8 L367.6,319.1 L364.2,329.7 L350.5,345.5 L343.8,346.8 L337.7,344.2 L342.3,352.5 L335.5,357.6 L326.8,357.9 L327.4,363.0 L325.7,364.0 L319.1,364.1 L319.5,366.8 L323.7,368.2 L318.9,370.8 L317.9,375.1 L313.1,376.5 L312.3,378.6 L317.7,381.2 L316.7,383.7 L307.9,390.9 L310.7,395.4 L303.2,396.9 L302.8,399.5 L291.8,395.2 L290.0,385.2 L294.1,380.4 L289.9,379.6 L293.5,372.5 L296.6,373.5 L298.0,367.7 L296.1,367.0 L295.3,370.5 L293.5,370.1 L296.6,359.1 L295.6,353.2 L301.6,340.1 L305.1,304.9 L301.5,298.2 L288.9,290.7 L278.4,270.0 L274.3,267.0 L273.9,263.2 L278.4,257.4 L275.1,256.2 L275.2,252.9 L285.8,239.3 L282.8,226.9 L279.0,225.2 L275.3,229.9 L262.1,222.4 L261.9,219.2 L257.0,213.1 L246.6,211.3 L237.0,205.0 L231.8,206.5 L212.5,199.2 L207.0,194.6 L205.5,186.7 L188.3,169.6 L185.7,163.4 L181.2,161.7 L181.5,166.2 L196.0,185.6 L194.4,186.6 L188.4,181.3 L188.1,177.7 L180.4,173.0 L182.9,170.6 L179.1,167.9 L174.2,158.2 L164.9,153.9 L154.4,138.0 L155.8,123.5 L153.6,116.2 L158.0,116.6 L159.5,119.2 L158.8,113.9 L146.0,108.8 L144.9,104.6 L141.3,103.5 L127.6,88.5 L91.3,80.9 L88.3,81.5 L88.8,83.4 L78.6,85.7 L81.6,79.8 L72.2,85.1 L74.2,86.5 L71.6,88.5 L59.9,94.5 L42.3,98.9 L61.9,90.1 L63.8,86.3 L50.1,87.0 L50.3,84.4 L44.9,83.9 L38.6,79.2 L42.9,74.6 L53.4,72.9 L51.3,71.1 L53.4,70.0 L41.8,71.0 L33.0,67.6 L43.1,65.1 L50.9,66.3 L36.8,60.1 L50.3,54.6 L65.1,51.8 L120.8,58.6 L141.4,56.2 L144.1,54.2 L150.7,57.0 L154.4,55.1 L154.8,57.2 L162.6,56.1 L183.6,60.0 L179.7,61.4 L194.6,61.2 L197.6,62.8 L200.6,61.4 L197.7,60.2 L199.5,59.3 L205.1,58.9 L218.2,62.1 L226.5,61.7 L226.2,60.0 L228.7,59.5 L233.0,60.4 L233.0,63.1 L238.2,58.1 L232.0,55.3 L232.2,52.2 L235.5,50.2 L245.8,55.0 L243.3,56.4 L248.5,57.0Z"/><path d="M182.9,46.9 L181.5,48.2 L194.7,47.3 L199.5,51.0 L200.9,49.8 L198.9,47.0 L204.1,47.0 L207.2,48.1 L209.8,52.8 L219.2,56.7 L214.6,56.9 L215.5,59.0 L185.2,59.6 L174.1,55.7 L187.7,54.5 L172.5,54.1 L171.0,53.0 L177.5,51.9 L168.3,51.2 L180.0,46.3 L182.9,46.9Z"/><path d="M209.7,46.1 L207.3,47.9 L202.9,45.9 L207.6,45.4 L209.7,46.1Z"/><path d="M287.9,46.9 L279.2,47.9 L275.3,46.3 L283.2,45.4 L287.9,46.9Z"/><path d="M259.5,46.8 L261.7,48.5 L271.3,45.1 L276.1,48.0 L275.7,49.8 L283.8,47.9 L294.2,51.9 L299.3,51.2 L314.0,57.8 L308.9,59.1 L328.2,64.3 L322.4,69.4 L311.1,65.9 L310.7,67.5 L320.4,73.9 L319.4,75.9 L308.9,72.9 L316.2,78.0 L302.7,75.2 L292.1,70.3 L284.1,71.6 L281.8,70.6 L283.6,68.6 L294.6,68.2 L297.4,61.9 L280.7,55.1 L264.0,55.6 L250.3,52.2 L249.4,49.3 L251.6,46.9 L261.6,45.0 L259.5,46.8Z"/><path d="M221.2,44.9 L229.5,45.1 L227.6,47.2 L231.8,48.4 L231.3,50.9 L224.1,51.8 L215.3,48.6 L221.0,48.0 L217.9,46.2 L221.2,44.9Z"/><path d="M898.9,46.6 L888.5,46.2 L898.6,45.9 L898.9,46.6Z"/><path d="M241.1,47.9 L235.0,49.8 L233.3,46.0 L237.5,44.1 L248.6,44.8 L244.4,47.3 L241.1,47.9Z"/><path d="M165.4,51.7 L158.1,53.1 L150.2,50.4 L155.7,45.3 L153.0,43.6 L173.5,43.9 L179.1,45.9 L165.4,50.5 L165.4,51.7Z"/><path d="M918.7,41.4 L905.9,41.2 L911.7,40.7 L918.7,41.4Z"/><path d="M240.0,41.7 L231.1,41.9 L239.0,40.8 L240.0,41.7Z"/><path d="M903.0,40.1 L900.8,42.2 L886.0,42.7 L880.5,40.9 L882.0,39.0 L893.0,38.6 L903.0,40.1Z"/><path d="M226.4,36.9 L228.5,38.2 L227.3,41.7 L215.3,40.1 L215.1,38.0 L226.2,37.3 L226.4,36.9Z"/><path d="M199.4,38.3 L206.4,40.3 L188.3,43.3 L183.7,42.4 L189.5,41.2 L173.0,41.0 L179.4,37.6 L197.0,40.4 L193.1,37.7 L198.5,37.0 L199.4,38.3Z"/><path d="M659.8,53.6 L649.1,53.4 L642.9,50.0 L655.3,42.7 L654.5,41.4 L669.9,38.2 L691.3,37.4 L662.4,43.6 L653.9,49.0 L654.5,51.3 L659.8,53.6Z"/><path d="M237.0,35.8 L252.3,40.0 L274.6,39.7 L278.2,41.9 L243.3,42.1 L242.0,39.2 L230.2,36.8 L231.3,35.7 L237.0,35.8Z"/><path d="M177.2,34.3 L174.7,37.4 L158.7,38.6 L173.4,34.7 L177.2,34.3Z"/><path d="M797.1,36.2 L817.0,39.3 L803.9,43.9 L842.2,47.3 L842.4,45.2 L852.7,45.7 L857.2,47.1 L858.5,48.9 L856.8,50.1 L864.7,53.4 L867.4,50.5 L888.5,51.4 L886.5,48.8 L890.2,47.6 L915.3,49.4 L924.9,53.2 L941.7,53.1 L947.1,57.1 L966.2,56.7 L971.0,59.2 L974.5,58.3 L972.2,56.5 L973.5,55.3 L988.1,55.9 L1000.0,58.4 L1000.0,69.5 L992.8,70.5 L998.3,75.0 L997.9,76.9 L982.4,78.7 L973.1,83.7 L969.2,81.7 L954.3,83.7 L950.0,88.2 L953.3,90.0 L952.9,94.0 L949.2,96.4 L950.3,97.6 L945.5,99.0 L944.5,102.2 L940.4,102.9 L935.5,108.3 L931.8,96.2 L933.1,92.3 L954.6,80.2 L956.9,76.2 L944.8,81.8 L942.5,78.4 L935.3,79.3 L928.4,84.0 L930.7,85.7 L920.2,86.7 L920.4,84.7 L916.1,84.3 L895.0,86.0 L875.4,98.0 L883.8,100.7 L888.6,99.5 L892.7,104.9 L889.1,115.4 L883.9,121.4 L874.6,129.4 L870.9,131.1 L867.4,129.8 L854.3,139.6 L859.6,147.8 L858.6,152.5 L851.3,154.5 L850.3,148.0 L852.4,147.5 L846.4,144.1 L848.1,140.1 L845.2,139.1 L836.3,142.0 L839.4,137.7 L837.9,136.3 L827.9,141.1 L826.5,142.4 L830.3,146.0 L839.9,146.0 L840.3,147.4 L831.0,153.0 L838.6,162.0 L836.8,164.8 L839.1,167.1 L838.0,171.6 L829.6,181.8 L821.9,186.7 L807.7,190.6 L806.8,193.5 L805.2,193.7 L805.2,190.6 L801.5,189.7 L794.1,195.1 L793.5,197.1 L802.4,207.6 L803.7,212.7 L803.3,217.6 L792.1,226.1 L791.9,222.4 L787.5,220.5 L785.0,216.1 L780.1,214.9 L780.5,212.7 L778.0,212.8 L775.6,224.3 L786.0,234.7 L789.5,246.4 L781.6,242.3 L778.0,232.0 L773.6,226.7 L773.2,228.3 L774.3,218.2 L769.9,203.0 L764.9,206.3 L761.6,205.4 L762.0,199.4 L753.9,186.8 L751.4,186.7 L750.8,189.3 L741.6,190.3 L740.3,194.0 L728.3,204.0 L723.1,205.8 L721.8,221.2 L715.4,227.9 L704.3,205.6 L701.8,190.7 L695.8,192.0 L684.4,179.4 L670.8,180.3 L659.4,178.5 L656.9,174.6 L652.0,176.4 L643.1,172.6 L639.2,166.3 L633.3,166.7 L641.1,181.2 L641.7,177.8 L643.3,178.3 L643.9,183.3 L650.0,183.0 L656.6,176.7 L657.9,182.7 L666.1,188.0 L660.6,193.8 L660.3,197.4 L653.5,202.1 L645.5,204.5 L644.9,206.7 L635.2,211.1 L620.8,214.9 L618.5,203.4 L608.7,190.9 L606.9,184.2 L596.2,172.1 L597.0,168.1 L594.2,173.2 L590.1,167.1 L598.7,185.8 L602.4,188.9 L604.1,198.3 L609.1,205.8 L620.3,215.6 L618.7,217.4 L623.9,221.0 L642.0,216.6 L641.8,220.4 L632.6,238.3 L611.8,257.1 L608.9,263.0 L607.8,268.0 L612.4,279.9 L613.3,290.8 L609.6,296.4 L596.6,305.0 L598.9,315.9 L590.5,321.5 L589.5,329.9 L578.4,341.0 L571.6,344.3 L562.7,344.1 L554.5,346.7 L551.0,344.8 L550.6,337.9 L542.3,325.3 L539.6,311.4 L532.8,300.2 L532.7,293.9 L538.0,279.8 L533.1,264.0 L524.4,253.1 L526.1,239.6 L523.6,236.7 L516.4,238.2 L512.0,232.6 L494.5,236.9 L475.0,236.6 L465.5,229.8 L458.8,219.8 L453.9,216.2 L451.0,209.1 L455.1,199.7 L452.9,189.2 L459.9,177.1 L473.4,166.9 L474.2,159.5 L480.8,155.2 L483.5,150.7 L494.0,152.3 L504.1,148.3 L526.4,146.2 L530.8,147.5 L528.7,156.2 L553.0,165.9 L555.7,163.9 L555.9,160.4 L559.8,158.8 L580.3,164.2 L586.0,162.3 L593.8,164.0 L600.0,153.8 L600.4,148.2 L590.3,149.7 L576.8,148.2 L572.7,140.4 L581.2,135.5 L593.1,133.3 L606.5,136.3 L612.1,136.1 L615.8,133.4 L601.9,124.3 L608.7,118.7 L597.1,121.5 L600.9,124.7 L594.1,126.8 L590.2,124.1 L592.5,122.0 L585.4,120.6 L576.9,131.7 L580.0,136.0 L573.2,138.5 L569.2,136.3 L565.9,137.0 L567.8,138.5 L566.4,139.0 L562.9,138.2 L566.8,145.4 L564.2,144.7 L564.3,148.8 L562.5,148.9 L553.9,138.2 L554.3,134.1 L536.5,123.0 L534.2,123.9 L535.0,127.5 L551.3,138.4 L546.9,137.7 L547.4,141.9 L544.7,144.5 L542.8,138.8 L524.7,126.8 L518.1,130.2 L508.6,130.3 L508.4,133.6 L502.3,136.1 L499.2,140.8 L500.3,142.4 L494.0,148.1 L485.1,150.1 L481.9,147.4 L475.3,147.6 L473.9,130.5 L477.8,128.5 L494.7,129.4 L496.2,127.7 L496.7,122.2 L487.5,116.8 L487.2,114.8 L495.5,114.9 L494.6,111.7 L497.3,112.9 L503.7,110.8 L504.6,108.5 L510.6,106.6 L513.1,102.5 L522.6,101.3 L524.4,99.9 L522.6,95.8 L523.7,91.4 L529.4,89.6 L528.5,92.0 L530.3,93.2 L526.8,95.9 L530.4,100.0 L534.8,98.7 L539.2,100.7 L549.0,97.6 L554.6,98.8 L559.1,96.7 L559.9,90.5 L567.0,91.6 L567.9,87.8 L564.8,85.6 L580.9,83.3 L578.0,81.9 L563.5,83.8 L559.2,81.3 L559.8,74.5 L570.6,69.1 L566.4,66.6 L561.6,67.4 L559.4,71.1 L549.6,75.7 L547.6,79.6 L552.2,83.1 L546.7,86.9 L544.1,94.2 L536.0,96.2 L528.8,84.8 L523.3,88.0 L515.7,87.3 L513.9,77.9 L529.2,70.9 L541.0,61.6 L553.3,56.1 L568.2,52.7 L578.2,52.3 L586.9,54.3 L583.3,55.0 L586.4,56.8 L601.4,58.2 L614.1,62.6 L614.2,64.5 L606.6,66.7 L592.2,64.9 L596.7,66.9 L597.1,71.1 L602.8,72.6 L601.4,70.1 L603.3,69.0 L610.0,70.8 L612.3,70.1 L610.5,68.1 L616.9,65.3 L622.1,66.5 L623.7,64.6 L620.7,59.5 L628.5,60.4 L630.1,62.0 L626.6,63.9 L628.7,64.8 L649.2,58.7 L651.3,58.9 L648.6,60.6 L663.3,58.7 L666.5,60.3 L669.7,58.5 L666.8,56.9 L668.2,56.0 L690.3,60.9 L692.2,59.4 L685.9,57.1 L685.3,52.7 L692.2,47.7 L701.6,47.8 L699.6,51.6 L702.2,54.5 L701.6,58.3 L704.6,60.0 L698.0,65.8 L701.2,66.2 L708.5,61.8 L706.9,60.2 L708.2,58.4 L704.4,56.6 L706.7,53.8 L703.1,51.5 L708.0,49.7 L707.4,47.7 L710.2,49.2 L709.1,51.8 L712.1,52.4 L710.8,50.3 L715.5,49.3 L726.4,50.7 L723.6,45.4 L741.2,44.6 L738.9,43.2 L742.1,41.3 L779.9,37.7 L789.9,34.2 L794.6,35.1 L790.8,35.8 L797.1,36.2ZM636.4,135.3 L640.0,138.2 L637.7,138.4 L635.7,142.2 L636.7,145.6 L649.5,147.3 L649.7,141.8 L646.4,138.8 L647.0,136.5 L652.0,136.2 L649.2,133.0 L646.7,135.7 L645.8,131.1 L639.7,126.1 L647.3,124.3 L647.3,119.9 L636.4,121.1 L629.7,126.1 L635.0,133.9 L636.4,135.3Z"/><path d="M239.3,34.7 L232.1,33.8 L239.7,34.3 L239.3,34.7Z"/><path d="M193.9,34.2 L184.6,34.1 L194.8,33.3 L193.9,34.2Z"/><path d="M568.7,33.7 L557.6,34.2 L559.5,33.5 L557.8,32.6 L564.7,33.1 L568.7,33.7Z"/><path d="M195.4,31.7 L187.4,32.2 L191.8,31.1 L195.4,31.7Z"/><path d="M233.8,33.2 L227.4,33.1 L226.0,30.9 L234.6,32.2 L233.8,33.2Z"/><path d="M222.1,32.4 L223.1,33.6 L207.8,32.3 L210.5,31.5 L207.0,29.7 L219.9,31.1 L222.1,32.4Z"/><path d="M791.9,32.5 L776.2,33.6 L783.6,29.6 L792.7,31.4 L791.9,32.5Z"/><path d="M550.7,28.6 L559.8,30.7 L552.9,31.8 L547.6,36.6 L544.2,36.7 L529.0,28.7 L547.2,27.6 L550.7,28.6Z"/><path d="M570.7,26.6 L576.1,27.6 L564.0,29.4 L548.2,26.9 L563.7,26.0 L570.7,26.6Z"/><path d="M642.0,26.3 L632.2,27.7 L624.6,26.1 L643.1,25.8 L642.0,26.3Z"/><path d="M777.6,30.9 L763.8,30.4 L753.3,26.8 L766.5,24.3 L778.3,28.4 L777.6,30.9Z"/><path d="M258.3,28.7 L261.6,29.6 L247.8,32.7 L242.0,32.4 L239.0,31.2 L241.3,29.5 L231.4,27.3 L236.8,24.4 L243.3,24.3 L256.1,26.9 L258.3,28.7Z"/><path d="M309.7,19.1 L328.2,20.5 L312.1,23.6 L318.1,23.6 L302.3,28.3 L286.4,29.7 L290.2,30.0 L288.3,30.5 L290.6,31.9 L278.4,35.5 L283.6,36.7 L276.2,38.4 L251.4,37.6 L256.2,35.6 L254.8,33.6 L264.0,34.6 L255.7,32.3 L263.6,29.6 L258.5,27.1 L272.6,26.5 L256.7,26.3 L245.6,22.5 L303.7,19.0 L309.7,19.1Z"/><path d="M424.7,18.0 L442.1,20.2 L411.4,21.7 L438.7,23.0 L435.6,24.6 L456.2,22.5 L466.1,24.2 L444.3,27.3 L450.7,27.4 L445.3,31.2 L445.4,34.3 L448.7,36.2 L439.8,37.1 L444.9,38.6 L445.6,41.0 L442.6,41.2 L446.2,43.6 L434.5,46.4 L438.1,49.5 L431.1,49.1 L438.5,51.5 L439.6,53.7 L434.6,54.2 L429.0,51.6 L430.0,53.5 L426.8,54.9 L437.9,55.2 L389.4,68.2 L385.6,73.7 L381.1,75.9 L382.2,78.1 L379.5,83.1 L365.9,80.9 L356.6,73.3 L350.1,63.4 L358.7,55.8 L348.1,56.6 L349.0,53.3 L357.2,54.0 L344.9,51.0 L348.0,48.4 L337.3,40.2 L309.7,38.7 L301.7,36.1 L314.5,35.1 L296.4,33.2 L317.5,29.5 L318.5,28.4 L311.0,27.5 L327.1,24.1 L326.0,22.9 L360.0,21.0 L376.3,23.2 L370.1,20.5 L402.5,17.7 L424.7,18.0Z"/></g></svg>