<svg xmlns="http://www.w3.org/2000/svg" viewBox="0 0 1200 600" fill="none" stroke="#ffffff" stroke-width="4" stroke-linecap="round" stroke-linejoin="round">
  <path d="M88 175 132 112l72-33 79 11 54 41 58 10 21 38-37 27-48-6-31 31-27 59-39 15-37-41-49-13-42-36-41-12Z"/>
  <path d="m295 317 63 24 35 47-11 54-35 89-34-26-15-70-29-58Z"/>
  <path d="m527 136 31-27 54 5 34 30-25 29-51-4-32 22-31-19Z"/>
  <path d="m551 220 68-20 55 31 21 62-27 98-57 67-44-37-17-86-46-63Z"/>
  <path d="m646 151 77-52 93-13 72 24 71 2 67 39 92 16 49 47-31 48-76 4-63 40-64-19-57 16-65-34-46 13-52-58-72-29Z"/>
  <path d="m933 391 65-31 71 24 28 48-44 44-79-5-43-43Z"/>
  <path d="m230 56 45-34 52 11 20 38-56 16-48-7Z"/>
  <path d="M437 176 467 153m257 159 27 42m50-70 24 33m305-70 25 15"/>
</svg>
